#!OML:ASF E:\acrobat2\Project_11_07_03\Capture day 1\Session 1\Acrobat.ASF
:FULLY-SPECIFIED
:DEGREES
91
root 12.945 20.479 9.86544 3.60719 0.758389 0.33563
lowerback -7.5988 0.0505491 -1.19013
upperback 0.937938 0.258671 -1.52535
thorax 5.24411 0.11616 -0.885892
lowerneck 0.264991 -5.62326 -2.88704
upperneck 5.91181 -7.82448 6.31306
head 2.23961 -3.83699 2.36363
rclavicle -3.90115e-015 1.86858e-014
rhumerus -37.6705 -11.4989 -80.7494
rradius 26.0644
rwrist 7.26323
rhand -4.89586 -39.0675
rfingers 7.12502
rthumb 20.8935 -67.9624
lclavicle -3.90115e-015 1.86858e-014
lhumerus -29.4089 -3.58348 83.0172
lradius 21.8654
lwrist 5.25634
lhand -3.44543 -13.3974
lfingers 7.12502
lthumb 22.2864 15.3375
rfemur -8.0269 10.1477 17.0101
rtibia 24.5429
rfoot -36.3321 -16.3602
rtoes 4.41355
lfemur -17.8535 -3.66066 -14.6438
ltibia 38.2909
lfoot -36.368 -12.1265
ltoes -0.197885
92
root 12.9436 20.4791 9.87463 3.543 0.7821 0.310498
lowerback -7.58723 0.0939579 -1.18884
upperback 0.946395 0.316747 -1.53282
thorax 5.24687 0.144989 -0.887437
lowerneck 0.209346 -5.59325 -2.81599
upperneck 5.97873 -7.78478 6.25754
head 2.26313 -3.81478 2.33168
rclavicle -2.55935e-015 -1.59028e-015
rhumerus -37.7479 -11.6225 -80.7245
rradius 25.8285
rwrist 7.56025
rhand -4.74086 -39.0326
rfingers 7.12502
rthumb 21.0424 -67.9109
lclavicle -2.55935e-015 -1.59028e-015
lhumerus -29.3354 -3.54051 82.965
lradius 21.8691
lwrist 5.24034
lhand -3.4915 -13.4541
lfingers 7.12502
lthumb 22.2422 15.286
rfemur -7.86152 10.1827 17.0755
rtibia 24.4546
rfoot -36.2907 -16.4058
rtoes 4.49227
lfemur -17.7827 -3.71035 -14.6111
ltibia 38.326
lfoot -36.1914 -12.1654
ltoes 0.371687
93
root 12.9418 20.4795 9.88475 3.46732 0.796509 0.256217
lowerback -7.56553 0.146516 -1.15205
upperback 0.950186 0.383314 -1.53913
thorax 5.23928 0.179063 -0.906723
lowerneck 0.163503 -5.55812 -2.72799
upperneck 6.04538 -7.73818 6.19493
head 2.28331 -3.78909 2.29491
rclavicle -7.55382e-015 1.98785e-015
rhumerus -37.8409 -11.788 -80.6884
rradius 25.5958
rwrist 7.93186
rhand -4.58618 -38.9465
rfingers 7.12502
rthumb 21.191 -67.8083
lclavicle -7.55382e-015 1.98785e-015
lhumerus -29.2883 -3.48115 82.9012
lradius 21.8766
lwrist 5.22224
lhand -3.56065 -13.547
lfingers 7.12502
lthumb 22.1758 15.2011
rfemur -7.67217 10.2431 17.1778
rtibia 24.3378
rfoot -36.2455 -16.4653
rtoes 4.64604
lfemur -17.7088 -3.75779 -14.5471
ltibia 38.3778
lfoot -36.016 -12.1704
ltoes 0.860769
94
root 12.9396 20.4807 9.89519 3.39174 0.799806 0.18246
lowerback -7.53323 0.206346 -1.0924
upperback 0.940329 0.4569 -1.54445
thorax 5.21171 0.217305 -0.937004
lowerneck 0.143727 -5.51428 -2.62092
upperneck 6.10514 -7.67928 6.11843
head 2.29433 -3.75768 2.25132
rclavicle -1.49089e-016 -1.98785e-015
rhumerus -37.9509 -11.9521 -80.6559
rradius 25.3683
rwrist 8.31453
rhand -4.46692 -38.8688
rfingers 7.12502
rthumb 21.3055 -67.7177
lclavicle -1.49089e-016 -1.98785e-015
lhumerus -29.2799 -3.40044 82.8274
lradius 21.9001
lwrist 5.20592
lhand -3.63864 -13.6584
lfingers 7.12502
lthumb 22.1009 15.0985
rfemur -7.48196 10.3519 17.3043
rtibia 24.2046
rfoot -36.2214 -16.5387
rtoes 4.9505
lfemur -17.6419 -3.78962 -14.4617
ltibia 38.4381
lfoot -35.842 -12.1286
ltoes 1.16903
95
root 12.9372 20.4828 9.90525 3.32366 0.798963 0.0971588
lowerback -7.49096 0.269677 -1.01938
upperback 0.913192 0.533308 -1.54781
thorax 5.1607 0.257329 -0.972504
lowerneck 0.154048 -5.45897 -2.48851
upperneck 6.15758 -7.60377 6.01765
head 2.29432 -3.71857 2.19662
rclavicle -5.86415e-015 9.14409e-015
rhumerus -38.0724 -12.0937 -80.6308
rradius 25.1472
rwrist 8.67532
rhand -4.35114 -38.8612
rfingers 7.12502
rthumb 21.4167 -67.6975
lclavicle -5.86415e-015 9.14409e-015
lhumerus -29.3071 -3.2901 82.7442
lradius 21.9422
lwrist 5.19272
lhand -3.70307 -13.7656
lfingers 7.12502
lthumb 22.0391 14.9986
rfemur -7.30882 10.5067 17.4445
rtibia 24.0739
rfoot -36.2263 -16.6268
rtoes 5.38587
lfemur -17.5864 -3.79581 -14.3624
ltibia 38.4976
lfoot -35.6625 -12.0553
ltoes 1.26206
96
root 12.9348 20.4857 9.91399 3.26946 0.803022 0.0143666
lowerback -7.44214 0.330515 -0.945701
upperback 0.87143 0.60588 -1.54879
thorax 5.09084 0.29543 -1.00649
lowerneck 0.184156 -5.38772 -2.34066
upperneck 6.20865 -7.50572 5.89458
head 2.28756 -3.66869 2.1331
rclavicle -7.8023e-015 -1.27222e-014
rhumerus -38.1948 -12.205 -80.6098
rradius 24.9437
rwrist 9.006
rhand -4.21077 -38.9201
rfingers 7.12502
rthumb 21.5515 -67.741
lclavicle -7.8023e-015 -1.27222e-014
lhumerus -29.3587 -3.16294 82.662
lradius 22.0039
lwrist 5.21268
lhand -3.75554 -13.857
lfingers 7.12502
lthumb 21.9887 14.9132
rfemur -7.17002 10.6892 17.5797
rtibia 23.9664
rfoot -36.2631 -16.722
rtoes 5.89571
lfemur -17.5449 -3.79306 -14.2643
ltibia 38.5473
lfoot -35.482 -11.9612
ltoes 1.17823
97
root 12.9331 20.4889 9.92133 3.22856 0.818452 -0.0377842
lowerback -7.39654 0.382325 -0.890723
upperback 0.825274 0.668457 -1.55484
thorax 5.01818 0.328091 -1.03654
lowerneck 0.209289 -5.29363 -2.19542
upperneck 6.26575 -7.37664 5.76362
head 2.2823 -3.60339 2.06822
rclavicle 1.06971e-014 -2.78299e-015
rhumerus -38.3001 -12.2902 -80.59
rradius 24.7589
rwrist 9.32029
rhand -4.01774 -39.0185
rfingers 7.12502
rthumb 21.7369 -67.818
lclavicle 1.06971e-014 -2.78299e-015
lhumerus -29.4178 -3.03242 82.5876
lradius 22.0802
lwrist 5.27148
lhand -3.80995 -13.9268
lfingers 7.12502
lthumb 21.9365 14.8495
rfemur -7.07027 10.8397 17.6722
rtibia 23.8979
rfoot -36.3016 -16.8103
rtoes 6.30925
lfemur -17.5094 -3.79656 -14.2032
ltibia 38.5814
lfoot -35.3193 -11.843
ltoes 0.893524
98
root 12.9325 20.4916 9.92777 3.20305 0.84721 -0.0336724
lowerback -7.37312 0.421546 -0.876622
upperback 0.785038 0.719171 -1.57344
thorax 4.96395 0.353881 -1.05802
lowerneck 0.199018 -5.17366 -2.06196
upperneck 6.3383 -7.21335 5.63555
head 2.2881 -3.52043 2.00634
rclavicle -5.30507e-015 3.97569e-015
rhumerus -38.3714 -12.3599 -80.5697
rradius 24.5882
rwrist 9.6403
rhand -3.73895 -39.1354
rfingers 7.12502
rthumb 22.0046 -67.9037
lclavicle -5.30507e-015 3.97569e-015
lhumerus -29.4572 -2.87892 82.5155
lradius 22.1494
lwrist 5.32701
lhand -3.87565 -13.9839
lfingers 7.12502
lthumb 21.8734 14.7998
rfemur -7.01192 10.901 17.6873
rtibia 23.8775
rfoot -36.3174 -16.8515
rtoes 6.55993
lfemur -17.4739 -3.80865 -14.2106
ltibia 38.5961
lfoot -35.1875 -11.7219
ltoes 0.461225
99
root 12.9329 20.4939 9.93389 3.19882 0.881866 0.0365732
lowerback -7.3871 0.447671 -0.919787
upperback 0.753394 0.75911 -1.60481
thorax 4.93925 0.372918 -1.06168
lowerneck 0.138301 -5.02671 -1.94426
upperneck 6.4331 -7.01487 5.51323
head 2.31028 -3.41905 1.94877
rclavicle 3.35449e-015 1.27222e-014
rhumerus -38.4076 -12.4043 -80.5554
rradius 24.4377
rwrist 9.95728
rhand -3.40006 -39.2371
rfingers 7.12502
rthumb 22.33 -67.9667
lclavicle 3.35449e-015 1.27222e-014
lhumerus -29.464 -2.68641 82.4433
lradius 22.1955
lwrist 5.36309
lhand -3.95356 -14.0409
lfingers 7.12502
lthumb 21.7986 14.7515
rfemur -6.99809 10.8804 17.6118
rtibia 23.9069
rfoot -36.33 -16.7964
rtoes 6.80961
lfemur -17.4415 -3.83117 -14.2967
ltibia 38.5893
lfoot -35.0864 -11.6083
ltoes -0.00762967
100
root 12.9337 20.4961 9.94043 3.21216 0.909399 0.166
lowerback -7.43621 0.467472 -1.02156
upperback 0.726379 0.79736 -1.64876
thorax 4.93864 0.389677 -1.04544
lowerneck 0.0538595 -4.86132 -1.82701
upperneck 6.53075 -6.79145 5.38656
head 2.33702 -3.30501 1.89009
rclavicle -6.21202e-017 1.51076e-014
rhumerus -38.4302 -12.4167 -80.5578
rradius 24.3224
rwrist 10.2386
rhand -3.04395 -39.3126
rfingers 7.12502
rthumb 22.6718 -68.0009
lclavicle -6.21202e-017 1.51076e-014
lhumerus -29.4474 -2.46373 82.3696
lradius 22.2201
lwrist 5.37041
lhand -4.01608 -14.0846
lfingers 7.12502
lthumb 21.7385 14.7147
rfemur -7.01848 10.8246 17.4599
rtibia 23.9808
rfoot -36.3521 -16.6669
rtoes 7.08829
lfemur -17.4082 -3.85323 -14.4509
ltibia 38.5592
lfoot -35.0065 -11.4968
ltoes -0.476211
101
root 12.9339 20.4986 9.94752 3.23915 0.919723 0.332357
lowerback -7.50668 0.488981 -1.16989
upperback 0.696544 0.84303 -1.70036
thorax 4.94665 0.408942 -1.00994
lowerneck -0.00778452 -4.69843 -1.67674
upperneck 6.59419 -6.56791 5.2189
head 2.34571 -3.19197 1.81312
rclavicle -6.98231e-015 -4.77083e-015
rhumerus -38.4629 -12.3985 -80.5792
rradius 24.2553
rwrist 10.4558
rhand -2.70027 -39.3665
rfingers 7.12502
rthumb 23.0016 -68.014
lclavicle -6.98231e-015 -4.77083e-015
lhumerus -29.4222 -2.23822 82.3004
lradius 22.2359
lwrist 5.3554
lhand -4.04475 -14.0966
lfingers 7.12502
lthumb 21.711 14.706
rfemur -7.06448 10.8099 17.2675
rtibia 24.0885
rfoot -36.4118 -16.5099
rtoes 7.46292
lfemur -17.3737 -3.86137 -14.6429
ltibia 38.5061
lfoot -34.928 -11.4001
ltoes -0.884379
